%TF.GenerationSoftware,KiCad,Pcbnew,8.0.7*%
%TF.CreationDate,2025-01-05T01:31:37-06:00*%
%TF.ProjectId,MFM-Emulator-J7-LED-Board,4d464d2d-456d-4756-9c61-746f722d4a37,v1.0*%
%TF.SameCoordinates,Original*%
%TF.FileFunction,Legend,Top*%
%TF.FilePolarity,Positive*%
%FSLAX46Y46*%
G04 Gerber Fmt 4.6, Leading zero omitted, Abs format (unit mm)*
G04 Created by KiCad (PCBNEW 8.0.7) date 2025-01-05 01:31:37*
%MOMM*%
%LPD*%
G01*
G04 APERTURE LIST*
%ADD10C,0.150000*%
%ADD11C,0.120000*%
G04 APERTURE END LIST*
D10*
X156546779Y-96008866D02*
X157308684Y-96008866D01*
X156927731Y-96389819D02*
X156927731Y-95627914D01*
X129876779Y-96008866D02*
X130638684Y-96008866D01*
X130257731Y-96389819D02*
X130257731Y-95627914D01*
X130765779Y-91055819D02*
X130765779Y-90055819D01*
X130765779Y-90055819D02*
X131099112Y-90770104D01*
X131099112Y-90770104D02*
X131432445Y-90055819D01*
X131432445Y-90055819D02*
X131432445Y-91055819D01*
X132241969Y-90532009D02*
X131908636Y-90532009D01*
X131908636Y-91055819D02*
X131908636Y-90055819D01*
X131908636Y-90055819D02*
X132384826Y-90055819D01*
X132765779Y-91055819D02*
X132765779Y-90055819D01*
X132765779Y-90055819D02*
X133099112Y-90770104D01*
X133099112Y-90770104D02*
X133432445Y-90055819D01*
X133432445Y-90055819D02*
X133432445Y-91055819D01*
X134670541Y-90532009D02*
X135003874Y-90532009D01*
X135146731Y-91055819D02*
X134670541Y-91055819D01*
X134670541Y-91055819D02*
X134670541Y-90055819D01*
X134670541Y-90055819D02*
X135146731Y-90055819D01*
X135575303Y-91055819D02*
X135575303Y-90389152D01*
X135575303Y-90484390D02*
X135622922Y-90436771D01*
X135622922Y-90436771D02*
X135718160Y-90389152D01*
X135718160Y-90389152D02*
X135861017Y-90389152D01*
X135861017Y-90389152D02*
X135956255Y-90436771D01*
X135956255Y-90436771D02*
X136003874Y-90532009D01*
X136003874Y-90532009D02*
X136003874Y-91055819D01*
X136003874Y-90532009D02*
X136051493Y-90436771D01*
X136051493Y-90436771D02*
X136146731Y-90389152D01*
X136146731Y-90389152D02*
X136289588Y-90389152D01*
X136289588Y-90389152D02*
X136384827Y-90436771D01*
X136384827Y-90436771D02*
X136432446Y-90532009D01*
X136432446Y-90532009D02*
X136432446Y-91055819D01*
X137337207Y-90389152D02*
X137337207Y-91055819D01*
X136908636Y-90389152D02*
X136908636Y-90912961D01*
X136908636Y-90912961D02*
X136956255Y-91008200D01*
X136956255Y-91008200D02*
X137051493Y-91055819D01*
X137051493Y-91055819D02*
X137194350Y-91055819D01*
X137194350Y-91055819D02*
X137289588Y-91008200D01*
X137289588Y-91008200D02*
X137337207Y-90960580D01*
X137956255Y-91055819D02*
X137861017Y-91008200D01*
X137861017Y-91008200D02*
X137813398Y-90912961D01*
X137813398Y-90912961D02*
X137813398Y-90055819D01*
X138765779Y-91055819D02*
X138765779Y-90532009D01*
X138765779Y-90532009D02*
X138718160Y-90436771D01*
X138718160Y-90436771D02*
X138622922Y-90389152D01*
X138622922Y-90389152D02*
X138432446Y-90389152D01*
X138432446Y-90389152D02*
X138337208Y-90436771D01*
X138765779Y-91008200D02*
X138670541Y-91055819D01*
X138670541Y-91055819D02*
X138432446Y-91055819D01*
X138432446Y-91055819D02*
X138337208Y-91008200D01*
X138337208Y-91008200D02*
X138289589Y-90912961D01*
X138289589Y-90912961D02*
X138289589Y-90817723D01*
X138289589Y-90817723D02*
X138337208Y-90722485D01*
X138337208Y-90722485D02*
X138432446Y-90674866D01*
X138432446Y-90674866D02*
X138670541Y-90674866D01*
X138670541Y-90674866D02*
X138765779Y-90627247D01*
X139099113Y-90389152D02*
X139480065Y-90389152D01*
X139241970Y-90055819D02*
X139241970Y-90912961D01*
X139241970Y-90912961D02*
X139289589Y-91008200D01*
X139289589Y-91008200D02*
X139384827Y-91055819D01*
X139384827Y-91055819D02*
X139480065Y-91055819D01*
X139956256Y-91055819D02*
X139861018Y-91008200D01*
X139861018Y-91008200D02*
X139813399Y-90960580D01*
X139813399Y-90960580D02*
X139765780Y-90865342D01*
X139765780Y-90865342D02*
X139765780Y-90579628D01*
X139765780Y-90579628D02*
X139813399Y-90484390D01*
X139813399Y-90484390D02*
X139861018Y-90436771D01*
X139861018Y-90436771D02*
X139956256Y-90389152D01*
X139956256Y-90389152D02*
X140099113Y-90389152D01*
X140099113Y-90389152D02*
X140194351Y-90436771D01*
X140194351Y-90436771D02*
X140241970Y-90484390D01*
X140241970Y-90484390D02*
X140289589Y-90579628D01*
X140289589Y-90579628D02*
X140289589Y-90865342D01*
X140289589Y-90865342D02*
X140241970Y-90960580D01*
X140241970Y-90960580D02*
X140194351Y-91008200D01*
X140194351Y-91008200D02*
X140099113Y-91055819D01*
X140099113Y-91055819D02*
X139956256Y-91055819D01*
X140718161Y-91055819D02*
X140718161Y-90389152D01*
X140718161Y-90579628D02*
X140765780Y-90484390D01*
X140765780Y-90484390D02*
X140813399Y-90436771D01*
X140813399Y-90436771D02*
X140908637Y-90389152D01*
X140908637Y-90389152D02*
X141003875Y-90389152D01*
X142384828Y-90055819D02*
X142384828Y-90770104D01*
X142384828Y-90770104D02*
X142337209Y-90912961D01*
X142337209Y-90912961D02*
X142241971Y-91008200D01*
X142241971Y-91008200D02*
X142099114Y-91055819D01*
X142099114Y-91055819D02*
X142003876Y-91055819D01*
X142765781Y-90055819D02*
X143432447Y-90055819D01*
X143432447Y-90055819D02*
X143003876Y-91055819D01*
X144575305Y-90532009D02*
X144908638Y-90532009D01*
X145051495Y-91055819D02*
X144575305Y-91055819D01*
X144575305Y-91055819D02*
X144575305Y-90055819D01*
X144575305Y-90055819D02*
X145051495Y-90055819D01*
X145384829Y-91055819D02*
X145908638Y-90389152D01*
X145384829Y-90389152D02*
X145908638Y-91055819D01*
X146289591Y-90389152D02*
X146289591Y-91389152D01*
X146289591Y-90436771D02*
X146384829Y-90389152D01*
X146384829Y-90389152D02*
X146575305Y-90389152D01*
X146575305Y-90389152D02*
X146670543Y-90436771D01*
X146670543Y-90436771D02*
X146718162Y-90484390D01*
X146718162Y-90484390D02*
X146765781Y-90579628D01*
X146765781Y-90579628D02*
X146765781Y-90865342D01*
X146765781Y-90865342D02*
X146718162Y-90960580D01*
X146718162Y-90960580D02*
X146670543Y-91008200D01*
X146670543Y-91008200D02*
X146575305Y-91055819D01*
X146575305Y-91055819D02*
X146384829Y-91055819D01*
X146384829Y-91055819D02*
X146289591Y-91008200D01*
X147622924Y-91055819D02*
X147622924Y-90532009D01*
X147622924Y-90532009D02*
X147575305Y-90436771D01*
X147575305Y-90436771D02*
X147480067Y-90389152D01*
X147480067Y-90389152D02*
X147289591Y-90389152D01*
X147289591Y-90389152D02*
X147194353Y-90436771D01*
X147622924Y-91008200D02*
X147527686Y-91055819D01*
X147527686Y-91055819D02*
X147289591Y-91055819D01*
X147289591Y-91055819D02*
X147194353Y-91008200D01*
X147194353Y-91008200D02*
X147146734Y-90912961D01*
X147146734Y-90912961D02*
X147146734Y-90817723D01*
X147146734Y-90817723D02*
X147194353Y-90722485D01*
X147194353Y-90722485D02*
X147289591Y-90674866D01*
X147289591Y-90674866D02*
X147527686Y-90674866D01*
X147527686Y-90674866D02*
X147622924Y-90627247D01*
X148099115Y-90389152D02*
X148099115Y-91055819D01*
X148099115Y-90484390D02*
X148146734Y-90436771D01*
X148146734Y-90436771D02*
X148241972Y-90389152D01*
X148241972Y-90389152D02*
X148384829Y-90389152D01*
X148384829Y-90389152D02*
X148480067Y-90436771D01*
X148480067Y-90436771D02*
X148527686Y-90532009D01*
X148527686Y-90532009D02*
X148527686Y-91055819D01*
X148956258Y-91008200D02*
X149051496Y-91055819D01*
X149051496Y-91055819D02*
X149241972Y-91055819D01*
X149241972Y-91055819D02*
X149337210Y-91008200D01*
X149337210Y-91008200D02*
X149384829Y-90912961D01*
X149384829Y-90912961D02*
X149384829Y-90865342D01*
X149384829Y-90865342D02*
X149337210Y-90770104D01*
X149337210Y-90770104D02*
X149241972Y-90722485D01*
X149241972Y-90722485D02*
X149099115Y-90722485D01*
X149099115Y-90722485D02*
X149003877Y-90674866D01*
X149003877Y-90674866D02*
X148956258Y-90579628D01*
X148956258Y-90579628D02*
X148956258Y-90532009D01*
X148956258Y-90532009D02*
X149003877Y-90436771D01*
X149003877Y-90436771D02*
X149099115Y-90389152D01*
X149099115Y-90389152D02*
X149241972Y-90389152D01*
X149241972Y-90389152D02*
X149337210Y-90436771D01*
X149813401Y-91055819D02*
X149813401Y-90389152D01*
X149813401Y-90055819D02*
X149765782Y-90103438D01*
X149765782Y-90103438D02*
X149813401Y-90151057D01*
X149813401Y-90151057D02*
X149861020Y-90103438D01*
X149861020Y-90103438D02*
X149813401Y-90055819D01*
X149813401Y-90055819D02*
X149813401Y-90151057D01*
X150432448Y-91055819D02*
X150337210Y-91008200D01*
X150337210Y-91008200D02*
X150289591Y-90960580D01*
X150289591Y-90960580D02*
X150241972Y-90865342D01*
X150241972Y-90865342D02*
X150241972Y-90579628D01*
X150241972Y-90579628D02*
X150289591Y-90484390D01*
X150289591Y-90484390D02*
X150337210Y-90436771D01*
X150337210Y-90436771D02*
X150432448Y-90389152D01*
X150432448Y-90389152D02*
X150575305Y-90389152D01*
X150575305Y-90389152D02*
X150670543Y-90436771D01*
X150670543Y-90436771D02*
X150718162Y-90484390D01*
X150718162Y-90484390D02*
X150765781Y-90579628D01*
X150765781Y-90579628D02*
X150765781Y-90865342D01*
X150765781Y-90865342D02*
X150718162Y-90960580D01*
X150718162Y-90960580D02*
X150670543Y-91008200D01*
X150670543Y-91008200D02*
X150575305Y-91055819D01*
X150575305Y-91055819D02*
X150432448Y-91055819D01*
X151194353Y-90389152D02*
X151194353Y-91055819D01*
X151194353Y-90484390D02*
X151241972Y-90436771D01*
X151241972Y-90436771D02*
X151337210Y-90389152D01*
X151337210Y-90389152D02*
X151480067Y-90389152D01*
X151480067Y-90389152D02*
X151575305Y-90436771D01*
X151575305Y-90436771D02*
X151622924Y-90532009D01*
X151622924Y-90532009D02*
X151622924Y-91055819D01*
X153337210Y-91055819D02*
X152861020Y-91055819D01*
X152861020Y-91055819D02*
X152861020Y-90055819D01*
X153670544Y-90532009D02*
X154003877Y-90532009D01*
X154146734Y-91055819D02*
X153670544Y-91055819D01*
X153670544Y-91055819D02*
X153670544Y-90055819D01*
X153670544Y-90055819D02*
X154146734Y-90055819D01*
X154575306Y-91055819D02*
X154575306Y-90055819D01*
X154575306Y-90055819D02*
X154813401Y-90055819D01*
X154813401Y-90055819D02*
X154956258Y-90103438D01*
X154956258Y-90103438D02*
X155051496Y-90198676D01*
X155051496Y-90198676D02*
X155099115Y-90293914D01*
X155099115Y-90293914D02*
X155146734Y-90484390D01*
X155146734Y-90484390D02*
X155146734Y-90627247D01*
X155146734Y-90627247D02*
X155099115Y-90817723D01*
X155099115Y-90817723D02*
X155051496Y-90912961D01*
X155051496Y-90912961D02*
X154956258Y-91008200D01*
X154956258Y-91008200D02*
X154813401Y-91055819D01*
X154813401Y-91055819D02*
X154575306Y-91055819D01*
X155527687Y-91008200D02*
X155622925Y-91055819D01*
X155622925Y-91055819D02*
X155813401Y-91055819D01*
X155813401Y-91055819D02*
X155908639Y-91008200D01*
X155908639Y-91008200D02*
X155956258Y-90912961D01*
X155956258Y-90912961D02*
X155956258Y-90865342D01*
X155956258Y-90865342D02*
X155908639Y-90770104D01*
X155908639Y-90770104D02*
X155813401Y-90722485D01*
X155813401Y-90722485D02*
X155670544Y-90722485D01*
X155670544Y-90722485D02*
X155575306Y-90674866D01*
X155575306Y-90674866D02*
X155527687Y-90579628D01*
X155527687Y-90579628D02*
X155527687Y-90532009D01*
X155527687Y-90532009D02*
X155575306Y-90436771D01*
X155575306Y-90436771D02*
X155670544Y-90389152D01*
X155670544Y-90389152D02*
X155813401Y-90389152D01*
X155813401Y-90389152D02*
X155908639Y-90436771D01*
X157070588Y-93849819D02*
X156499160Y-93849819D01*
X156784874Y-93849819D02*
X156784874Y-92849819D01*
X156784874Y-92849819D02*
X156689636Y-92992676D01*
X156689636Y-92992676D02*
X156594398Y-93087914D01*
X156594398Y-93087914D02*
X156499160Y-93135533D01*
X158543666Y-90386819D02*
X158543666Y-91101104D01*
X158543666Y-91101104D02*
X158496047Y-91243961D01*
X158496047Y-91243961D02*
X158400809Y-91339200D01*
X158400809Y-91339200D02*
X158257952Y-91386819D01*
X158257952Y-91386819D02*
X158162714Y-91386819D01*
X158924619Y-90386819D02*
X159543666Y-90386819D01*
X159543666Y-90386819D02*
X159210333Y-90767771D01*
X159210333Y-90767771D02*
X159353190Y-90767771D01*
X159353190Y-90767771D02*
X159448428Y-90815390D01*
X159448428Y-90815390D02*
X159496047Y-90863009D01*
X159496047Y-90863009D02*
X159543666Y-90958247D01*
X159543666Y-90958247D02*
X159543666Y-91196342D01*
X159543666Y-91196342D02*
X159496047Y-91291580D01*
X159496047Y-91291580D02*
X159448428Y-91339200D01*
X159448428Y-91339200D02*
X159353190Y-91386819D01*
X159353190Y-91386819D02*
X159067476Y-91386819D01*
X159067476Y-91386819D02*
X158972238Y-91339200D01*
X158972238Y-91339200D02*
X158924619Y-91291580D01*
X127809666Y-90513819D02*
X127809666Y-91228104D01*
X127809666Y-91228104D02*
X127762047Y-91370961D01*
X127762047Y-91370961D02*
X127666809Y-91466200D01*
X127666809Y-91466200D02*
X127523952Y-91513819D01*
X127523952Y-91513819D02*
X127428714Y-91513819D01*
X128238238Y-90609057D02*
X128285857Y-90561438D01*
X128285857Y-90561438D02*
X128381095Y-90513819D01*
X128381095Y-90513819D02*
X128619190Y-90513819D01*
X128619190Y-90513819D02*
X128714428Y-90561438D01*
X128714428Y-90561438D02*
X128762047Y-90609057D01*
X128762047Y-90609057D02*
X128809666Y-90704295D01*
X128809666Y-90704295D02*
X128809666Y-90799533D01*
X128809666Y-90799533D02*
X128762047Y-90942390D01*
X128762047Y-90942390D02*
X128190619Y-91513819D01*
X128190619Y-91513819D02*
X128809666Y-91513819D01*
X135151905Y-97863819D02*
X135151905Y-96863819D01*
X135151905Y-96863819D02*
X135390000Y-96863819D01*
X135390000Y-96863819D02*
X135532857Y-96911438D01*
X135532857Y-96911438D02*
X135628095Y-97006676D01*
X135628095Y-97006676D02*
X135675714Y-97101914D01*
X135675714Y-97101914D02*
X135723333Y-97292390D01*
X135723333Y-97292390D02*
X135723333Y-97435247D01*
X135723333Y-97435247D02*
X135675714Y-97625723D01*
X135675714Y-97625723D02*
X135628095Y-97720961D01*
X135628095Y-97720961D02*
X135532857Y-97816200D01*
X135532857Y-97816200D02*
X135390000Y-97863819D01*
X135390000Y-97863819D02*
X135151905Y-97863819D01*
X136675714Y-97863819D02*
X136104286Y-97863819D01*
X136390000Y-97863819D02*
X136390000Y-96863819D01*
X136390000Y-96863819D02*
X136294762Y-97006676D01*
X136294762Y-97006676D02*
X136199524Y-97101914D01*
X136199524Y-97101914D02*
X136104286Y-97149533D01*
X128452857Y-99514819D02*
X128452857Y-98514819D01*
X128452857Y-98514819D02*
X128690952Y-98514819D01*
X128690952Y-98514819D02*
X128833809Y-98562438D01*
X128833809Y-98562438D02*
X128929047Y-98657676D01*
X128929047Y-98657676D02*
X128976666Y-98752914D01*
X128976666Y-98752914D02*
X129024285Y-98943390D01*
X129024285Y-98943390D02*
X129024285Y-99086247D01*
X129024285Y-99086247D02*
X128976666Y-99276723D01*
X128976666Y-99276723D02*
X128929047Y-99371961D01*
X128929047Y-99371961D02*
X128833809Y-99467200D01*
X128833809Y-99467200D02*
X128690952Y-99514819D01*
X128690952Y-99514819D02*
X128452857Y-99514819D01*
X130024285Y-99514819D02*
X129690952Y-99038628D01*
X129452857Y-99514819D02*
X129452857Y-98514819D01*
X129452857Y-98514819D02*
X129833809Y-98514819D01*
X129833809Y-98514819D02*
X129929047Y-98562438D01*
X129929047Y-98562438D02*
X129976666Y-98610057D01*
X129976666Y-98610057D02*
X130024285Y-98705295D01*
X130024285Y-98705295D02*
X130024285Y-98848152D01*
X130024285Y-98848152D02*
X129976666Y-98943390D01*
X129976666Y-98943390D02*
X129929047Y-98991009D01*
X129929047Y-98991009D02*
X129833809Y-99038628D01*
X129833809Y-99038628D02*
X129452857Y-99038628D01*
X130452857Y-99514819D02*
X130452857Y-98514819D01*
X130786190Y-98514819D02*
X131119523Y-99514819D01*
X131119523Y-99514819D02*
X131452856Y-98514819D01*
X131786190Y-98991009D02*
X132119523Y-98991009D01*
X132262380Y-99514819D02*
X131786190Y-99514819D01*
X131786190Y-99514819D02*
X131786190Y-98514819D01*
X131786190Y-98514819D02*
X132262380Y-98514819D01*
X133214761Y-99514819D02*
X132643333Y-99514819D01*
X132929047Y-99514819D02*
X132929047Y-98514819D01*
X132929047Y-98514819D02*
X132833809Y-98657676D01*
X132833809Y-98657676D02*
X132738571Y-98752914D01*
X132738571Y-98752914D02*
X132643333Y-98800533D01*
X150391905Y-97863819D02*
X150391905Y-96863819D01*
X150391905Y-96863819D02*
X150630000Y-96863819D01*
X150630000Y-96863819D02*
X150772857Y-96911438D01*
X150772857Y-96911438D02*
X150868095Y-97006676D01*
X150868095Y-97006676D02*
X150915714Y-97101914D01*
X150915714Y-97101914D02*
X150963333Y-97292390D01*
X150963333Y-97292390D02*
X150963333Y-97435247D01*
X150963333Y-97435247D02*
X150915714Y-97625723D01*
X150915714Y-97625723D02*
X150868095Y-97720961D01*
X150868095Y-97720961D02*
X150772857Y-97816200D01*
X150772857Y-97816200D02*
X150630000Y-97863819D01*
X150630000Y-97863819D02*
X150391905Y-97863819D01*
X151344286Y-96959057D02*
X151391905Y-96911438D01*
X151391905Y-96911438D02*
X151487143Y-96863819D01*
X151487143Y-96863819D02*
X151725238Y-96863819D01*
X151725238Y-96863819D02*
X151820476Y-96911438D01*
X151820476Y-96911438D02*
X151868095Y-96959057D01*
X151868095Y-96959057D02*
X151915714Y-97054295D01*
X151915714Y-97054295D02*
X151915714Y-97149533D01*
X151915714Y-97149533D02*
X151868095Y-97292390D01*
X151868095Y-97292390D02*
X151296667Y-97863819D01*
X151296667Y-97863819D02*
X151915714Y-97863819D01*
X153852857Y-99514819D02*
X153852857Y-98514819D01*
X153852857Y-98514819D02*
X154090952Y-98514819D01*
X154090952Y-98514819D02*
X154233809Y-98562438D01*
X154233809Y-98562438D02*
X154329047Y-98657676D01*
X154329047Y-98657676D02*
X154376666Y-98752914D01*
X154376666Y-98752914D02*
X154424285Y-98943390D01*
X154424285Y-98943390D02*
X154424285Y-99086247D01*
X154424285Y-99086247D02*
X154376666Y-99276723D01*
X154376666Y-99276723D02*
X154329047Y-99371961D01*
X154329047Y-99371961D02*
X154233809Y-99467200D01*
X154233809Y-99467200D02*
X154090952Y-99514819D01*
X154090952Y-99514819D02*
X153852857Y-99514819D01*
X155424285Y-99514819D02*
X155090952Y-99038628D01*
X154852857Y-99514819D02*
X154852857Y-98514819D01*
X154852857Y-98514819D02*
X155233809Y-98514819D01*
X155233809Y-98514819D02*
X155329047Y-98562438D01*
X155329047Y-98562438D02*
X155376666Y-98610057D01*
X155376666Y-98610057D02*
X155424285Y-98705295D01*
X155424285Y-98705295D02*
X155424285Y-98848152D01*
X155424285Y-98848152D02*
X155376666Y-98943390D01*
X155376666Y-98943390D02*
X155329047Y-98991009D01*
X155329047Y-98991009D02*
X155233809Y-99038628D01*
X155233809Y-99038628D02*
X154852857Y-99038628D01*
X155852857Y-99514819D02*
X155852857Y-98514819D01*
X156186190Y-98514819D02*
X156519523Y-99514819D01*
X156519523Y-99514819D02*
X156852856Y-98514819D01*
X157186190Y-98991009D02*
X157519523Y-98991009D01*
X157662380Y-99514819D02*
X157186190Y-99514819D01*
X157186190Y-99514819D02*
X157186190Y-98514819D01*
X157186190Y-98514819D02*
X157662380Y-98514819D01*
X158043333Y-98610057D02*
X158090952Y-98562438D01*
X158090952Y-98562438D02*
X158186190Y-98514819D01*
X158186190Y-98514819D02*
X158424285Y-98514819D01*
X158424285Y-98514819D02*
X158519523Y-98562438D01*
X158519523Y-98562438D02*
X158567142Y-98610057D01*
X158567142Y-98610057D02*
X158614761Y-98705295D01*
X158614761Y-98705295D02*
X158614761Y-98800533D01*
X158614761Y-98800533D02*
X158567142Y-98943390D01*
X158567142Y-98943390D02*
X157995714Y-99514819D01*
X157995714Y-99514819D02*
X158614761Y-99514819D01*
X145922333Y-97863819D02*
X145589000Y-97387628D01*
X145350905Y-97863819D02*
X145350905Y-96863819D01*
X145350905Y-96863819D02*
X145731857Y-96863819D01*
X145731857Y-96863819D02*
X145827095Y-96911438D01*
X145827095Y-96911438D02*
X145874714Y-96959057D01*
X145874714Y-96959057D02*
X145922333Y-97054295D01*
X145922333Y-97054295D02*
X145922333Y-97197152D01*
X145922333Y-97197152D02*
X145874714Y-97292390D01*
X145874714Y-97292390D02*
X145827095Y-97340009D01*
X145827095Y-97340009D02*
X145731857Y-97387628D01*
X145731857Y-97387628D02*
X145350905Y-97387628D01*
X146303286Y-96959057D02*
X146350905Y-96911438D01*
X146350905Y-96911438D02*
X146446143Y-96863819D01*
X146446143Y-96863819D02*
X146684238Y-96863819D01*
X146684238Y-96863819D02*
X146779476Y-96911438D01*
X146779476Y-96911438D02*
X146827095Y-96959057D01*
X146827095Y-96959057D02*
X146874714Y-97054295D01*
X146874714Y-97054295D02*
X146874714Y-97149533D01*
X146874714Y-97149533D02*
X146827095Y-97292390D01*
X146827095Y-97292390D02*
X146255667Y-97863819D01*
X146255667Y-97863819D02*
X146874714Y-97863819D01*
X140803333Y-97863819D02*
X140470000Y-97387628D01*
X140231905Y-97863819D02*
X140231905Y-96863819D01*
X140231905Y-96863819D02*
X140612857Y-96863819D01*
X140612857Y-96863819D02*
X140708095Y-96911438D01*
X140708095Y-96911438D02*
X140755714Y-96959057D01*
X140755714Y-96959057D02*
X140803333Y-97054295D01*
X140803333Y-97054295D02*
X140803333Y-97197152D01*
X140803333Y-97197152D02*
X140755714Y-97292390D01*
X140755714Y-97292390D02*
X140708095Y-97340009D01*
X140708095Y-97340009D02*
X140612857Y-97387628D01*
X140612857Y-97387628D02*
X140231905Y-97387628D01*
X141755714Y-97863819D02*
X141184286Y-97863819D01*
X141470000Y-97863819D02*
X141470000Y-96863819D01*
X141470000Y-96863819D02*
X141374762Y-97006676D01*
X141374762Y-97006676D02*
X141279524Y-97101914D01*
X141279524Y-97101914D02*
X141184286Y-97149533D01*
D11*
%TO.C,J3*%
X160207000Y-97215000D02*
X158877000Y-97215000D01*
X160207000Y-95885000D02*
X160207000Y-97215000D01*
X160207000Y-94615000D02*
X160207000Y-92015000D01*
X160207000Y-94615000D02*
X157547000Y-94615000D01*
X160207000Y-92015000D02*
X157547000Y-92015000D01*
X157547000Y-94615000D02*
X157547000Y-92015000D01*
%TO.C,J2*%
X129473000Y-97342000D02*
X128143000Y-97342000D01*
X129473000Y-96012000D02*
X129473000Y-97342000D01*
X129473000Y-94742000D02*
X129473000Y-92142000D01*
X129473000Y-94742000D02*
X126813000Y-94742000D01*
X129473000Y-92142000D02*
X126813000Y-92142000D01*
X126813000Y-94742000D02*
X126813000Y-92142000D01*
%TO.C,D1*%
X134030000Y-98100000D02*
X134030000Y-100020000D01*
X134030000Y-100020000D02*
X136890000Y-100020000D01*
X136890000Y-98100000D02*
X134030000Y-98100000D01*
%TO.C,D2*%
X150130000Y-100020000D02*
X152990000Y-100020000D01*
X152990000Y-98100000D02*
X150130000Y-98100000D01*
X152990000Y-100020000D02*
X152990000Y-98100000D01*
%TO.C,R2*%
X146277064Y-98325000D02*
X145822936Y-98325000D01*
X146277064Y-99795000D02*
X145822936Y-99795000D01*
%TO.C,R1*%
X140742936Y-98325000D02*
X141197064Y-98325000D01*
X140742936Y-99795000D02*
X141197064Y-99795000D01*
%TD*%
M02*
