%TF.GenerationSoftware,KiCad,Pcbnew,8.0.7*%
%TF.CreationDate,2025-01-05T01:31:37-06:00*%
%TF.ProjectId,MFM-Emulator-J7-LED-Board,4d464d2d-456d-4756-9c61-746f722d4a37,v1.0*%
%TF.SameCoordinates,Original*%
%TF.FileFunction,Legend,Bot*%
%TF.FilePolarity,Positive*%
%FSLAX46Y46*%
G04 Gerber Fmt 4.6, Leading zero omitted, Abs format (unit mm)*
G04 Created by KiCad (PCBNEW 8.0.7) date 2025-01-05 01:31:37*
%MOMM*%
%LPD*%
G01*
G04 APERTURE LIST*
%ADD10C,0.150000*%
%ADD11C,0.120000*%
G04 APERTURE END LIST*
D10*
X152152857Y-97669208D02*
X152152857Y-98478732D01*
X152152857Y-98478732D02*
X152200476Y-98573970D01*
X152200476Y-98573970D02*
X152248095Y-98621589D01*
X152248095Y-98621589D02*
X152343333Y-98669208D01*
X152343333Y-98669208D02*
X152486190Y-98669208D01*
X152486190Y-98669208D02*
X152581428Y-98621589D01*
X152152857Y-98288256D02*
X152248095Y-98335875D01*
X152248095Y-98335875D02*
X152438571Y-98335875D01*
X152438571Y-98335875D02*
X152533809Y-98288256D01*
X152533809Y-98288256D02*
X152581428Y-98240636D01*
X152581428Y-98240636D02*
X152629047Y-98145398D01*
X152629047Y-98145398D02*
X152629047Y-97859684D01*
X152629047Y-97859684D02*
X152581428Y-97764446D01*
X152581428Y-97764446D02*
X152533809Y-97716827D01*
X152533809Y-97716827D02*
X152438571Y-97669208D01*
X152438571Y-97669208D02*
X152248095Y-97669208D01*
X152248095Y-97669208D02*
X152152857Y-97716827D01*
X151676666Y-98335875D02*
X151676666Y-97669208D01*
X151676666Y-97335875D02*
X151724285Y-97383494D01*
X151724285Y-97383494D02*
X151676666Y-97431113D01*
X151676666Y-97431113D02*
X151629047Y-97383494D01*
X151629047Y-97383494D02*
X151676666Y-97335875D01*
X151676666Y-97335875D02*
X151676666Y-97431113D01*
X151343333Y-97669208D02*
X150962381Y-97669208D01*
X151200476Y-97335875D02*
X151200476Y-98193017D01*
X151200476Y-98193017D02*
X151152857Y-98288256D01*
X151152857Y-98288256D02*
X151057619Y-98335875D01*
X151057619Y-98335875D02*
X150962381Y-98335875D01*
X150629047Y-98335875D02*
X150629047Y-97335875D01*
X150200476Y-98335875D02*
X150200476Y-97812065D01*
X150200476Y-97812065D02*
X150248095Y-97716827D01*
X150248095Y-97716827D02*
X150343333Y-97669208D01*
X150343333Y-97669208D02*
X150486190Y-97669208D01*
X150486190Y-97669208D02*
X150581428Y-97716827D01*
X150581428Y-97716827D02*
X150629047Y-97764446D01*
X149295714Y-97669208D02*
X149295714Y-98335875D01*
X149724285Y-97669208D02*
X149724285Y-98193017D01*
X149724285Y-98193017D02*
X149676666Y-98288256D01*
X149676666Y-98288256D02*
X149581428Y-98335875D01*
X149581428Y-98335875D02*
X149438571Y-98335875D01*
X149438571Y-98335875D02*
X149343333Y-98288256D01*
X149343333Y-98288256D02*
X149295714Y-98240636D01*
X148819523Y-98335875D02*
X148819523Y-97335875D01*
X148819523Y-97716827D02*
X148724285Y-97669208D01*
X148724285Y-97669208D02*
X148533809Y-97669208D01*
X148533809Y-97669208D02*
X148438571Y-97716827D01*
X148438571Y-97716827D02*
X148390952Y-97764446D01*
X148390952Y-97764446D02*
X148343333Y-97859684D01*
X148343333Y-97859684D02*
X148343333Y-98145398D01*
X148343333Y-98145398D02*
X148390952Y-98240636D01*
X148390952Y-98240636D02*
X148438571Y-98288256D01*
X148438571Y-98288256D02*
X148533809Y-98335875D01*
X148533809Y-98335875D02*
X148724285Y-98335875D01*
X148724285Y-98335875D02*
X148819523Y-98288256D01*
X147914761Y-98240636D02*
X147867142Y-98288256D01*
X147867142Y-98288256D02*
X147914761Y-98335875D01*
X147914761Y-98335875D02*
X147962380Y-98288256D01*
X147962380Y-98288256D02*
X147914761Y-98240636D01*
X147914761Y-98240636D02*
X147914761Y-98335875D01*
X147010000Y-98288256D02*
X147105238Y-98335875D01*
X147105238Y-98335875D02*
X147295714Y-98335875D01*
X147295714Y-98335875D02*
X147390952Y-98288256D01*
X147390952Y-98288256D02*
X147438571Y-98240636D01*
X147438571Y-98240636D02*
X147486190Y-98145398D01*
X147486190Y-98145398D02*
X147486190Y-97859684D01*
X147486190Y-97859684D02*
X147438571Y-97764446D01*
X147438571Y-97764446D02*
X147390952Y-97716827D01*
X147390952Y-97716827D02*
X147295714Y-97669208D01*
X147295714Y-97669208D02*
X147105238Y-97669208D01*
X147105238Y-97669208D02*
X147010000Y-97716827D01*
X146438571Y-98335875D02*
X146533809Y-98288256D01*
X146533809Y-98288256D02*
X146581428Y-98240636D01*
X146581428Y-98240636D02*
X146629047Y-98145398D01*
X146629047Y-98145398D02*
X146629047Y-97859684D01*
X146629047Y-97859684D02*
X146581428Y-97764446D01*
X146581428Y-97764446D02*
X146533809Y-97716827D01*
X146533809Y-97716827D02*
X146438571Y-97669208D01*
X146438571Y-97669208D02*
X146295714Y-97669208D01*
X146295714Y-97669208D02*
X146200476Y-97716827D01*
X146200476Y-97716827D02*
X146152857Y-97764446D01*
X146152857Y-97764446D02*
X146105238Y-97859684D01*
X146105238Y-97859684D02*
X146105238Y-98145398D01*
X146105238Y-98145398D02*
X146152857Y-98240636D01*
X146152857Y-98240636D02*
X146200476Y-98288256D01*
X146200476Y-98288256D02*
X146295714Y-98335875D01*
X146295714Y-98335875D02*
X146438571Y-98335875D01*
X145676666Y-98335875D02*
X145676666Y-97669208D01*
X145676666Y-97764446D02*
X145629047Y-97716827D01*
X145629047Y-97716827D02*
X145533809Y-97669208D01*
X145533809Y-97669208D02*
X145390952Y-97669208D01*
X145390952Y-97669208D02*
X145295714Y-97716827D01*
X145295714Y-97716827D02*
X145248095Y-97812065D01*
X145248095Y-97812065D02*
X145248095Y-98335875D01*
X145248095Y-97812065D02*
X145200476Y-97716827D01*
X145200476Y-97716827D02*
X145105238Y-97669208D01*
X145105238Y-97669208D02*
X144962381Y-97669208D01*
X144962381Y-97669208D02*
X144867142Y-97716827D01*
X144867142Y-97716827D02*
X144819523Y-97812065D01*
X144819523Y-97812065D02*
X144819523Y-98335875D01*
X143629048Y-97288256D02*
X144486190Y-98573970D01*
X142867143Y-98335875D02*
X142867143Y-97335875D01*
X142867143Y-98288256D02*
X142962381Y-98335875D01*
X142962381Y-98335875D02*
X143152857Y-98335875D01*
X143152857Y-98335875D02*
X143248095Y-98288256D01*
X143248095Y-98288256D02*
X143295714Y-98240636D01*
X143295714Y-98240636D02*
X143343333Y-98145398D01*
X143343333Y-98145398D02*
X143343333Y-97859684D01*
X143343333Y-97859684D02*
X143295714Y-97764446D01*
X143295714Y-97764446D02*
X143248095Y-97716827D01*
X143248095Y-97716827D02*
X143152857Y-97669208D01*
X143152857Y-97669208D02*
X142962381Y-97669208D01*
X142962381Y-97669208D02*
X142867143Y-97716827D01*
X142390952Y-97669208D02*
X142390952Y-98526351D01*
X142390952Y-98526351D02*
X142438571Y-98621589D01*
X142438571Y-98621589D02*
X142533809Y-98669208D01*
X142533809Y-98669208D02*
X142581428Y-98669208D01*
X142390952Y-97335875D02*
X142438571Y-97383494D01*
X142438571Y-97383494D02*
X142390952Y-97431113D01*
X142390952Y-97431113D02*
X142343333Y-97383494D01*
X142343333Y-97383494D02*
X142390952Y-97335875D01*
X142390952Y-97335875D02*
X142390952Y-97431113D01*
X142057619Y-97669208D02*
X141676667Y-97669208D01*
X141914762Y-97335875D02*
X141914762Y-98193017D01*
X141914762Y-98193017D02*
X141867143Y-98288256D01*
X141867143Y-98288256D02*
X141771905Y-98335875D01*
X141771905Y-98335875D02*
X141676667Y-98335875D01*
X140962381Y-98288256D02*
X141057619Y-98335875D01*
X141057619Y-98335875D02*
X141248095Y-98335875D01*
X141248095Y-98335875D02*
X141343333Y-98288256D01*
X141343333Y-98288256D02*
X141390952Y-98193017D01*
X141390952Y-98193017D02*
X141390952Y-97812065D01*
X141390952Y-97812065D02*
X141343333Y-97716827D01*
X141343333Y-97716827D02*
X141248095Y-97669208D01*
X141248095Y-97669208D02*
X141057619Y-97669208D01*
X141057619Y-97669208D02*
X140962381Y-97716827D01*
X140962381Y-97716827D02*
X140914762Y-97812065D01*
X140914762Y-97812065D02*
X140914762Y-97907303D01*
X140914762Y-97907303D02*
X141390952Y-98002541D01*
X140486190Y-98335875D02*
X140486190Y-97669208D01*
X140486190Y-97859684D02*
X140438571Y-97764446D01*
X140438571Y-97764446D02*
X140390952Y-97716827D01*
X140390952Y-97716827D02*
X140295714Y-97669208D01*
X140295714Y-97669208D02*
X140200476Y-97669208D01*
X139914761Y-98288256D02*
X139819523Y-98335875D01*
X139819523Y-98335875D02*
X139629047Y-98335875D01*
X139629047Y-98335875D02*
X139533809Y-98288256D01*
X139533809Y-98288256D02*
X139486190Y-98193017D01*
X139486190Y-98193017D02*
X139486190Y-98145398D01*
X139486190Y-98145398D02*
X139533809Y-98050160D01*
X139533809Y-98050160D02*
X139629047Y-98002541D01*
X139629047Y-98002541D02*
X139771904Y-98002541D01*
X139771904Y-98002541D02*
X139867142Y-97954922D01*
X139867142Y-97954922D02*
X139914761Y-97859684D01*
X139914761Y-97859684D02*
X139914761Y-97812065D01*
X139914761Y-97812065D02*
X139867142Y-97716827D01*
X139867142Y-97716827D02*
X139771904Y-97669208D01*
X139771904Y-97669208D02*
X139629047Y-97669208D01*
X139629047Y-97669208D02*
X139533809Y-97716827D01*
X139200475Y-97669208D02*
X138819523Y-97669208D01*
X139057618Y-97335875D02*
X139057618Y-98193017D01*
X139057618Y-98193017D02*
X139009999Y-98288256D01*
X139009999Y-98288256D02*
X138914761Y-98335875D01*
X138914761Y-98335875D02*
X138819523Y-98335875D01*
X138105237Y-98288256D02*
X138200475Y-98335875D01*
X138200475Y-98335875D02*
X138390951Y-98335875D01*
X138390951Y-98335875D02*
X138486189Y-98288256D01*
X138486189Y-98288256D02*
X138533808Y-98193017D01*
X138533808Y-98193017D02*
X138533808Y-97812065D01*
X138533808Y-97812065D02*
X138486189Y-97716827D01*
X138486189Y-97716827D02*
X138390951Y-97669208D01*
X138390951Y-97669208D02*
X138200475Y-97669208D01*
X138200475Y-97669208D02*
X138105237Y-97716827D01*
X138105237Y-97716827D02*
X138057618Y-97812065D01*
X138057618Y-97812065D02*
X138057618Y-97907303D01*
X138057618Y-97907303D02*
X138533808Y-98002541D01*
X137248094Y-98288256D02*
X137343332Y-98335875D01*
X137343332Y-98335875D02*
X137533808Y-98335875D01*
X137533808Y-98335875D02*
X137629046Y-98288256D01*
X137629046Y-98288256D02*
X137676665Y-98193017D01*
X137676665Y-98193017D02*
X137676665Y-97812065D01*
X137676665Y-97812065D02*
X137629046Y-97716827D01*
X137629046Y-97716827D02*
X137533808Y-97669208D01*
X137533808Y-97669208D02*
X137343332Y-97669208D01*
X137343332Y-97669208D02*
X137248094Y-97716827D01*
X137248094Y-97716827D02*
X137200475Y-97812065D01*
X137200475Y-97812065D02*
X137200475Y-97907303D01*
X137200475Y-97907303D02*
X137676665Y-98002541D01*
X136343332Y-97669208D02*
X136343332Y-98478732D01*
X136343332Y-98478732D02*
X136390951Y-98573970D01*
X136390951Y-98573970D02*
X136438570Y-98621589D01*
X136438570Y-98621589D02*
X136533808Y-98669208D01*
X136533808Y-98669208D02*
X136676665Y-98669208D01*
X136676665Y-98669208D02*
X136771903Y-98621589D01*
X136343332Y-98288256D02*
X136438570Y-98335875D01*
X136438570Y-98335875D02*
X136629046Y-98335875D01*
X136629046Y-98335875D02*
X136724284Y-98288256D01*
X136724284Y-98288256D02*
X136771903Y-98240636D01*
X136771903Y-98240636D02*
X136819522Y-98145398D01*
X136819522Y-98145398D02*
X136819522Y-97859684D01*
X136819522Y-97859684D02*
X136771903Y-97764446D01*
X136771903Y-97764446D02*
X136724284Y-97716827D01*
X136724284Y-97716827D02*
X136629046Y-97669208D01*
X136629046Y-97669208D02*
X136438570Y-97669208D01*
X136438570Y-97669208D02*
X136343332Y-97716827D01*
X135438570Y-98288256D02*
X135533808Y-98335875D01*
X135533808Y-98335875D02*
X135724284Y-98335875D01*
X135724284Y-98335875D02*
X135819522Y-98288256D01*
X135819522Y-98288256D02*
X135867141Y-98240636D01*
X135867141Y-98240636D02*
X135914760Y-98145398D01*
X135914760Y-98145398D02*
X135914760Y-97859684D01*
X135914760Y-97859684D02*
X135867141Y-97764446D01*
X135867141Y-97764446D02*
X135819522Y-97716827D01*
X135819522Y-97716827D02*
X135724284Y-97669208D01*
X135724284Y-97669208D02*
X135533808Y-97669208D01*
X135533808Y-97669208D02*
X135438570Y-97716827D01*
X134295713Y-97288256D02*
X135152855Y-98573970D01*
X155033809Y-99945819D02*
X155033809Y-98945819D01*
X155033809Y-98945819D02*
X154700476Y-99660104D01*
X154700476Y-99660104D02*
X154367143Y-98945819D01*
X154367143Y-98945819D02*
X154367143Y-99945819D01*
X153557619Y-99422009D02*
X153890952Y-99422009D01*
X153890952Y-99945819D02*
X153890952Y-98945819D01*
X153890952Y-98945819D02*
X153414762Y-98945819D01*
X153033809Y-99945819D02*
X153033809Y-98945819D01*
X153033809Y-98945819D02*
X152700476Y-99660104D01*
X152700476Y-99660104D02*
X152367143Y-98945819D01*
X152367143Y-98945819D02*
X152367143Y-99945819D01*
X151890952Y-99564866D02*
X151129048Y-99564866D01*
X150652857Y-99422009D02*
X150319524Y-99422009D01*
X150176667Y-99945819D02*
X150652857Y-99945819D01*
X150652857Y-99945819D02*
X150652857Y-98945819D01*
X150652857Y-98945819D02*
X150176667Y-98945819D01*
X149748095Y-99945819D02*
X149748095Y-99279152D01*
X149748095Y-99374390D02*
X149700476Y-99326771D01*
X149700476Y-99326771D02*
X149605238Y-99279152D01*
X149605238Y-99279152D02*
X149462381Y-99279152D01*
X149462381Y-99279152D02*
X149367143Y-99326771D01*
X149367143Y-99326771D02*
X149319524Y-99422009D01*
X149319524Y-99422009D02*
X149319524Y-99945819D01*
X149319524Y-99422009D02*
X149271905Y-99326771D01*
X149271905Y-99326771D02*
X149176667Y-99279152D01*
X149176667Y-99279152D02*
X149033810Y-99279152D01*
X149033810Y-99279152D02*
X148938571Y-99326771D01*
X148938571Y-99326771D02*
X148890952Y-99422009D01*
X148890952Y-99422009D02*
X148890952Y-99945819D01*
X147986191Y-99279152D02*
X147986191Y-99945819D01*
X148414762Y-99279152D02*
X148414762Y-99802961D01*
X148414762Y-99802961D02*
X148367143Y-99898200D01*
X148367143Y-99898200D02*
X148271905Y-99945819D01*
X148271905Y-99945819D02*
X148129048Y-99945819D01*
X148129048Y-99945819D02*
X148033810Y-99898200D01*
X148033810Y-99898200D02*
X147986191Y-99850580D01*
X147367143Y-99945819D02*
X147462381Y-99898200D01*
X147462381Y-99898200D02*
X147510000Y-99802961D01*
X147510000Y-99802961D02*
X147510000Y-98945819D01*
X146557619Y-99945819D02*
X146557619Y-99422009D01*
X146557619Y-99422009D02*
X146605238Y-99326771D01*
X146605238Y-99326771D02*
X146700476Y-99279152D01*
X146700476Y-99279152D02*
X146890952Y-99279152D01*
X146890952Y-99279152D02*
X146986190Y-99326771D01*
X146557619Y-99898200D02*
X146652857Y-99945819D01*
X146652857Y-99945819D02*
X146890952Y-99945819D01*
X146890952Y-99945819D02*
X146986190Y-99898200D01*
X146986190Y-99898200D02*
X147033809Y-99802961D01*
X147033809Y-99802961D02*
X147033809Y-99707723D01*
X147033809Y-99707723D02*
X146986190Y-99612485D01*
X146986190Y-99612485D02*
X146890952Y-99564866D01*
X146890952Y-99564866D02*
X146652857Y-99564866D01*
X146652857Y-99564866D02*
X146557619Y-99517247D01*
X146224285Y-99279152D02*
X145843333Y-99279152D01*
X146081428Y-98945819D02*
X146081428Y-99802961D01*
X146081428Y-99802961D02*
X146033809Y-99898200D01*
X146033809Y-99898200D02*
X145938571Y-99945819D01*
X145938571Y-99945819D02*
X145843333Y-99945819D01*
X145367142Y-99945819D02*
X145462380Y-99898200D01*
X145462380Y-99898200D02*
X145509999Y-99850580D01*
X145509999Y-99850580D02*
X145557618Y-99755342D01*
X145557618Y-99755342D02*
X145557618Y-99469628D01*
X145557618Y-99469628D02*
X145509999Y-99374390D01*
X145509999Y-99374390D02*
X145462380Y-99326771D01*
X145462380Y-99326771D02*
X145367142Y-99279152D01*
X145367142Y-99279152D02*
X145224285Y-99279152D01*
X145224285Y-99279152D02*
X145129047Y-99326771D01*
X145129047Y-99326771D02*
X145081428Y-99374390D01*
X145081428Y-99374390D02*
X145033809Y-99469628D01*
X145033809Y-99469628D02*
X145033809Y-99755342D01*
X145033809Y-99755342D02*
X145081428Y-99850580D01*
X145081428Y-99850580D02*
X145129047Y-99898200D01*
X145129047Y-99898200D02*
X145224285Y-99945819D01*
X145224285Y-99945819D02*
X145367142Y-99945819D01*
X144605237Y-99945819D02*
X144605237Y-99279152D01*
X144605237Y-99469628D02*
X144557618Y-99374390D01*
X144557618Y-99374390D02*
X144509999Y-99326771D01*
X144509999Y-99326771D02*
X144414761Y-99279152D01*
X144414761Y-99279152D02*
X144319523Y-99279152D01*
X143986189Y-99564866D02*
X143224285Y-99564866D01*
X142462380Y-98945819D02*
X142462380Y-99660104D01*
X142462380Y-99660104D02*
X142509999Y-99802961D01*
X142509999Y-99802961D02*
X142605237Y-99898200D01*
X142605237Y-99898200D02*
X142748094Y-99945819D01*
X142748094Y-99945819D02*
X142843332Y-99945819D01*
X142081427Y-98945819D02*
X141414761Y-98945819D01*
X141414761Y-98945819D02*
X141843332Y-99945819D01*
X141033808Y-99564866D02*
X140271904Y-99564866D01*
X139319523Y-99945819D02*
X139795713Y-99945819D01*
X139795713Y-99945819D02*
X139795713Y-98945819D01*
X138986189Y-99422009D02*
X138652856Y-99422009D01*
X138509999Y-99945819D02*
X138986189Y-99945819D01*
X138986189Y-99945819D02*
X138986189Y-98945819D01*
X138986189Y-98945819D02*
X138509999Y-98945819D01*
X138081427Y-99945819D02*
X138081427Y-98945819D01*
X138081427Y-98945819D02*
X137843332Y-98945819D01*
X137843332Y-98945819D02*
X137700475Y-98993438D01*
X137700475Y-98993438D02*
X137605237Y-99088676D01*
X137605237Y-99088676D02*
X137557618Y-99183914D01*
X137557618Y-99183914D02*
X137509999Y-99374390D01*
X137509999Y-99374390D02*
X137509999Y-99517247D01*
X137509999Y-99517247D02*
X137557618Y-99707723D01*
X137557618Y-99707723D02*
X137605237Y-99802961D01*
X137605237Y-99802961D02*
X137700475Y-99898200D01*
X137700475Y-99898200D02*
X137843332Y-99945819D01*
X137843332Y-99945819D02*
X138081427Y-99945819D01*
X137081427Y-99564866D02*
X136319523Y-99564866D01*
X135509999Y-99422009D02*
X135367142Y-99469628D01*
X135367142Y-99469628D02*
X135319523Y-99517247D01*
X135319523Y-99517247D02*
X135271904Y-99612485D01*
X135271904Y-99612485D02*
X135271904Y-99755342D01*
X135271904Y-99755342D02*
X135319523Y-99850580D01*
X135319523Y-99850580D02*
X135367142Y-99898200D01*
X135367142Y-99898200D02*
X135462380Y-99945819D01*
X135462380Y-99945819D02*
X135843332Y-99945819D01*
X135843332Y-99945819D02*
X135843332Y-98945819D01*
X135843332Y-98945819D02*
X135509999Y-98945819D01*
X135509999Y-98945819D02*
X135414761Y-98993438D01*
X135414761Y-98993438D02*
X135367142Y-99041057D01*
X135367142Y-99041057D02*
X135319523Y-99136295D01*
X135319523Y-99136295D02*
X135319523Y-99231533D01*
X135319523Y-99231533D02*
X135367142Y-99326771D01*
X135367142Y-99326771D02*
X135414761Y-99374390D01*
X135414761Y-99374390D02*
X135509999Y-99422009D01*
X135509999Y-99422009D02*
X135843332Y-99422009D01*
X134700475Y-99945819D02*
X134795713Y-99898200D01*
X134795713Y-99898200D02*
X134843332Y-99850580D01*
X134843332Y-99850580D02*
X134890951Y-99755342D01*
X134890951Y-99755342D02*
X134890951Y-99469628D01*
X134890951Y-99469628D02*
X134843332Y-99374390D01*
X134843332Y-99374390D02*
X134795713Y-99326771D01*
X134795713Y-99326771D02*
X134700475Y-99279152D01*
X134700475Y-99279152D02*
X134557618Y-99279152D01*
X134557618Y-99279152D02*
X134462380Y-99326771D01*
X134462380Y-99326771D02*
X134414761Y-99374390D01*
X134414761Y-99374390D02*
X134367142Y-99469628D01*
X134367142Y-99469628D02*
X134367142Y-99755342D01*
X134367142Y-99755342D02*
X134414761Y-99850580D01*
X134414761Y-99850580D02*
X134462380Y-99898200D01*
X134462380Y-99898200D02*
X134557618Y-99945819D01*
X134557618Y-99945819D02*
X134700475Y-99945819D01*
X133509999Y-99945819D02*
X133509999Y-99422009D01*
X133509999Y-99422009D02*
X133557618Y-99326771D01*
X133557618Y-99326771D02*
X133652856Y-99279152D01*
X133652856Y-99279152D02*
X133843332Y-99279152D01*
X133843332Y-99279152D02*
X133938570Y-99326771D01*
X133509999Y-99898200D02*
X133605237Y-99945819D01*
X133605237Y-99945819D02*
X133843332Y-99945819D01*
X133843332Y-99945819D02*
X133938570Y-99898200D01*
X133938570Y-99898200D02*
X133986189Y-99802961D01*
X133986189Y-99802961D02*
X133986189Y-99707723D01*
X133986189Y-99707723D02*
X133938570Y-99612485D01*
X133938570Y-99612485D02*
X133843332Y-99564866D01*
X133843332Y-99564866D02*
X133605237Y-99564866D01*
X133605237Y-99564866D02*
X133509999Y-99517247D01*
X133033808Y-99945819D02*
X133033808Y-99279152D01*
X133033808Y-99469628D02*
X132986189Y-99374390D01*
X132986189Y-99374390D02*
X132938570Y-99326771D01*
X132938570Y-99326771D02*
X132843332Y-99279152D01*
X132843332Y-99279152D02*
X132748094Y-99279152D01*
X131986189Y-99945819D02*
X131986189Y-98945819D01*
X131986189Y-99898200D02*
X132081427Y-99945819D01*
X132081427Y-99945819D02*
X132271903Y-99945819D01*
X132271903Y-99945819D02*
X132367141Y-99898200D01*
X132367141Y-99898200D02*
X132414760Y-99850580D01*
X132414760Y-99850580D02*
X132462379Y-99755342D01*
X132462379Y-99755342D02*
X132462379Y-99469628D01*
X132462379Y-99469628D02*
X132414760Y-99374390D01*
X132414760Y-99374390D02*
X132367141Y-99326771D01*
X132367141Y-99326771D02*
X132271903Y-99279152D01*
X132271903Y-99279152D02*
X132081427Y-99279152D01*
X132081427Y-99279152D02*
X131986189Y-99326771D01*
X130206570Y-98390152D02*
X129968475Y-99056819D01*
X129968475Y-99056819D02*
X129730380Y-98390152D01*
X128825618Y-99056819D02*
X129397046Y-99056819D01*
X129111332Y-99056819D02*
X129111332Y-98056819D01*
X129111332Y-98056819D02*
X129206570Y-98199676D01*
X129206570Y-98199676D02*
X129301808Y-98294914D01*
X129301808Y-98294914D02*
X129397046Y-98342533D01*
X128397046Y-98961580D02*
X128349427Y-99009200D01*
X128349427Y-99009200D02*
X128397046Y-99056819D01*
X128397046Y-99056819D02*
X128444665Y-99009200D01*
X128444665Y-99009200D02*
X128397046Y-98961580D01*
X128397046Y-98961580D02*
X128397046Y-99056819D01*
X127730380Y-98056819D02*
X127635142Y-98056819D01*
X127635142Y-98056819D02*
X127539904Y-98104438D01*
X127539904Y-98104438D02*
X127492285Y-98152057D01*
X127492285Y-98152057D02*
X127444666Y-98247295D01*
X127444666Y-98247295D02*
X127397047Y-98437771D01*
X127397047Y-98437771D02*
X127397047Y-98675866D01*
X127397047Y-98675866D02*
X127444666Y-98866342D01*
X127444666Y-98866342D02*
X127492285Y-98961580D01*
X127492285Y-98961580D02*
X127539904Y-99009200D01*
X127539904Y-99009200D02*
X127635142Y-99056819D01*
X127635142Y-99056819D02*
X127730380Y-99056819D01*
X127730380Y-99056819D02*
X127825618Y-99009200D01*
X127825618Y-99009200D02*
X127873237Y-98961580D01*
X127873237Y-98961580D02*
X127920856Y-98866342D01*
X127920856Y-98866342D02*
X127968475Y-98675866D01*
X127968475Y-98675866D02*
X127968475Y-98437771D01*
X127968475Y-98437771D02*
X127920856Y-98247295D01*
X127920856Y-98247295D02*
X127873237Y-98152057D01*
X127873237Y-98152057D02*
X127825618Y-98104438D01*
X127825618Y-98104438D02*
X127730380Y-98056819D01*
X151301220Y-91182819D02*
X151301220Y-90182819D01*
X151301220Y-90182819D02*
X150920268Y-90182819D01*
X150920268Y-90182819D02*
X150825030Y-90230438D01*
X150825030Y-90230438D02*
X150777411Y-90278057D01*
X150777411Y-90278057D02*
X150729792Y-90373295D01*
X150729792Y-90373295D02*
X150729792Y-90516152D01*
X150729792Y-90516152D02*
X150777411Y-90611390D01*
X150777411Y-90611390D02*
X150825030Y-90659009D01*
X150825030Y-90659009D02*
X150920268Y-90706628D01*
X150920268Y-90706628D02*
X151301220Y-90706628D01*
X149729792Y-91087580D02*
X149777411Y-91135200D01*
X149777411Y-91135200D02*
X149920268Y-91182819D01*
X149920268Y-91182819D02*
X150015506Y-91182819D01*
X150015506Y-91182819D02*
X150158363Y-91135200D01*
X150158363Y-91135200D02*
X150253601Y-91039961D01*
X150253601Y-91039961D02*
X150301220Y-90944723D01*
X150301220Y-90944723D02*
X150348839Y-90754247D01*
X150348839Y-90754247D02*
X150348839Y-90611390D01*
X150348839Y-90611390D02*
X150301220Y-90420914D01*
X150301220Y-90420914D02*
X150253601Y-90325676D01*
X150253601Y-90325676D02*
X150158363Y-90230438D01*
X150158363Y-90230438D02*
X150015506Y-90182819D01*
X150015506Y-90182819D02*
X149920268Y-90182819D01*
X149920268Y-90182819D02*
X149777411Y-90230438D01*
X149777411Y-90230438D02*
X149729792Y-90278057D01*
X148967887Y-90659009D02*
X148825030Y-90706628D01*
X148825030Y-90706628D02*
X148777411Y-90754247D01*
X148777411Y-90754247D02*
X148729792Y-90849485D01*
X148729792Y-90849485D02*
X148729792Y-90992342D01*
X148729792Y-90992342D02*
X148777411Y-91087580D01*
X148777411Y-91087580D02*
X148825030Y-91135200D01*
X148825030Y-91135200D02*
X148920268Y-91182819D01*
X148920268Y-91182819D02*
X149301220Y-91182819D01*
X149301220Y-91182819D02*
X149301220Y-90182819D01*
X149301220Y-90182819D02*
X148967887Y-90182819D01*
X148967887Y-90182819D02*
X148872649Y-90230438D01*
X148872649Y-90230438D02*
X148825030Y-90278057D01*
X148825030Y-90278057D02*
X148777411Y-90373295D01*
X148777411Y-90373295D02*
X148777411Y-90468533D01*
X148777411Y-90468533D02*
X148825030Y-90563771D01*
X148825030Y-90563771D02*
X148872649Y-90611390D01*
X148872649Y-90611390D02*
X148967887Y-90659009D01*
X148967887Y-90659009D02*
X149301220Y-90659009D01*
X147539315Y-91182819D02*
X147539315Y-90182819D01*
X147539315Y-90563771D02*
X147444077Y-90516152D01*
X147444077Y-90516152D02*
X147253601Y-90516152D01*
X147253601Y-90516152D02*
X147158363Y-90563771D01*
X147158363Y-90563771D02*
X147110744Y-90611390D01*
X147110744Y-90611390D02*
X147063125Y-90706628D01*
X147063125Y-90706628D02*
X147063125Y-90992342D01*
X147063125Y-90992342D02*
X147110744Y-91087580D01*
X147110744Y-91087580D02*
X147158363Y-91135200D01*
X147158363Y-91135200D02*
X147253601Y-91182819D01*
X147253601Y-91182819D02*
X147444077Y-91182819D01*
X147444077Y-91182819D02*
X147539315Y-91135200D01*
X146729791Y-90516152D02*
X146491696Y-91182819D01*
X146253601Y-90516152D02*
X146491696Y-91182819D01*
X146491696Y-91182819D02*
X146586934Y-91420914D01*
X146586934Y-91420914D02*
X146634553Y-91468533D01*
X146634553Y-91468533D02*
X146729791Y-91516152D01*
X144539315Y-91087580D02*
X144586934Y-91135200D01*
X144586934Y-91135200D02*
X144729791Y-91182819D01*
X144729791Y-91182819D02*
X144825029Y-91182819D01*
X144825029Y-91182819D02*
X144967886Y-91135200D01*
X144967886Y-91135200D02*
X145063124Y-91039961D01*
X145063124Y-91039961D02*
X145110743Y-90944723D01*
X145110743Y-90944723D02*
X145158362Y-90754247D01*
X145158362Y-90754247D02*
X145158362Y-90611390D01*
X145158362Y-90611390D02*
X145110743Y-90420914D01*
X145110743Y-90420914D02*
X145063124Y-90325676D01*
X145063124Y-90325676D02*
X144967886Y-90230438D01*
X144967886Y-90230438D02*
X144825029Y-90182819D01*
X144825029Y-90182819D02*
X144729791Y-90182819D01*
X144729791Y-90182819D02*
X144586934Y-90230438D01*
X144586934Y-90230438D02*
X144539315Y-90278057D01*
X144110743Y-91182819D02*
X144110743Y-90182819D01*
X143682172Y-91182819D02*
X143682172Y-90659009D01*
X143682172Y-90659009D02*
X143729791Y-90563771D01*
X143729791Y-90563771D02*
X143825029Y-90516152D01*
X143825029Y-90516152D02*
X143967886Y-90516152D01*
X143967886Y-90516152D02*
X144063124Y-90563771D01*
X144063124Y-90563771D02*
X144110743Y-90611390D01*
X143205981Y-91182819D02*
X143205981Y-90516152D01*
X143205981Y-90706628D02*
X143158362Y-90611390D01*
X143158362Y-90611390D02*
X143110743Y-90563771D01*
X143110743Y-90563771D02*
X143015505Y-90516152D01*
X143015505Y-90516152D02*
X142920267Y-90516152D01*
X142586933Y-91182819D02*
X142586933Y-90516152D01*
X142586933Y-90182819D02*
X142634552Y-90230438D01*
X142634552Y-90230438D02*
X142586933Y-90278057D01*
X142586933Y-90278057D02*
X142539314Y-90230438D01*
X142539314Y-90230438D02*
X142586933Y-90182819D01*
X142586933Y-90182819D02*
X142586933Y-90278057D01*
X142158362Y-91135200D02*
X142063124Y-91182819D01*
X142063124Y-91182819D02*
X141872648Y-91182819D01*
X141872648Y-91182819D02*
X141777410Y-91135200D01*
X141777410Y-91135200D02*
X141729791Y-91039961D01*
X141729791Y-91039961D02*
X141729791Y-90992342D01*
X141729791Y-90992342D02*
X141777410Y-90897104D01*
X141777410Y-90897104D02*
X141872648Y-90849485D01*
X141872648Y-90849485D02*
X142015505Y-90849485D01*
X142015505Y-90849485D02*
X142110743Y-90801866D01*
X142110743Y-90801866D02*
X142158362Y-90706628D01*
X142158362Y-90706628D02*
X142158362Y-90659009D01*
X142158362Y-90659009D02*
X142110743Y-90563771D01*
X142110743Y-90563771D02*
X142015505Y-90516152D01*
X142015505Y-90516152D02*
X141872648Y-90516152D01*
X141872648Y-90516152D02*
X141777410Y-90563771D01*
X140682171Y-90182819D02*
X140110743Y-90182819D01*
X140396457Y-91182819D02*
X140396457Y-90182819D01*
X139396457Y-91135200D02*
X139491695Y-91182819D01*
X139491695Y-91182819D02*
X139682171Y-91182819D01*
X139682171Y-91182819D02*
X139777409Y-91135200D01*
X139777409Y-91135200D02*
X139825028Y-91039961D01*
X139825028Y-91039961D02*
X139825028Y-90659009D01*
X139825028Y-90659009D02*
X139777409Y-90563771D01*
X139777409Y-90563771D02*
X139682171Y-90516152D01*
X139682171Y-90516152D02*
X139491695Y-90516152D01*
X139491695Y-90516152D02*
X139396457Y-90563771D01*
X139396457Y-90563771D02*
X139348838Y-90659009D01*
X139348838Y-90659009D02*
X139348838Y-90754247D01*
X139348838Y-90754247D02*
X139825028Y-90849485D01*
X138920266Y-91182819D02*
X138920266Y-90516152D01*
X138920266Y-90706628D02*
X138872647Y-90611390D01*
X138872647Y-90611390D02*
X138825028Y-90563771D01*
X138825028Y-90563771D02*
X138729790Y-90516152D01*
X138729790Y-90516152D02*
X138634552Y-90516152D01*
X138348837Y-91135200D02*
X138253599Y-91182819D01*
X138253599Y-91182819D02*
X138063123Y-91182819D01*
X138063123Y-91182819D02*
X137967885Y-91135200D01*
X137967885Y-91135200D02*
X137920266Y-91039961D01*
X137920266Y-91039961D02*
X137920266Y-90992342D01*
X137920266Y-90992342D02*
X137967885Y-90897104D01*
X137967885Y-90897104D02*
X138063123Y-90849485D01*
X138063123Y-90849485D02*
X138205980Y-90849485D01*
X138205980Y-90849485D02*
X138301218Y-90801866D01*
X138301218Y-90801866D02*
X138348837Y-90706628D01*
X138348837Y-90706628D02*
X138348837Y-90659009D01*
X138348837Y-90659009D02*
X138301218Y-90563771D01*
X138301218Y-90563771D02*
X138205980Y-90516152D01*
X138205980Y-90516152D02*
X138063123Y-90516152D01*
X138063123Y-90516152D02*
X137967885Y-90563771D01*
X137634551Y-90516152D02*
X137253599Y-90516152D01*
X137491694Y-90182819D02*
X137491694Y-91039961D01*
X137491694Y-91039961D02*
X137444075Y-91135200D01*
X137444075Y-91135200D02*
X137348837Y-91182819D01*
X137348837Y-91182819D02*
X137253599Y-91182819D01*
X136539313Y-91135200D02*
X136634551Y-91182819D01*
X136634551Y-91182819D02*
X136825027Y-91182819D01*
X136825027Y-91182819D02*
X136920265Y-91135200D01*
X136920265Y-91135200D02*
X136967884Y-91039961D01*
X136967884Y-91039961D02*
X136967884Y-90659009D01*
X136967884Y-90659009D02*
X136920265Y-90563771D01*
X136920265Y-90563771D02*
X136825027Y-90516152D01*
X136825027Y-90516152D02*
X136634551Y-90516152D01*
X136634551Y-90516152D02*
X136539313Y-90563771D01*
X136539313Y-90563771D02*
X136491694Y-90659009D01*
X136491694Y-90659009D02*
X136491694Y-90754247D01*
X136491694Y-90754247D02*
X136967884Y-90849485D01*
X135682170Y-91135200D02*
X135777408Y-91182819D01*
X135777408Y-91182819D02*
X135967884Y-91182819D01*
X135967884Y-91182819D02*
X136063122Y-91135200D01*
X136063122Y-91135200D02*
X136110741Y-91039961D01*
X136110741Y-91039961D02*
X136110741Y-90659009D01*
X136110741Y-90659009D02*
X136063122Y-90563771D01*
X136063122Y-90563771D02*
X135967884Y-90516152D01*
X135967884Y-90516152D02*
X135777408Y-90516152D01*
X135777408Y-90516152D02*
X135682170Y-90563771D01*
X135682170Y-90563771D02*
X135634551Y-90659009D01*
X135634551Y-90659009D02*
X135634551Y-90754247D01*
X135634551Y-90754247D02*
X136110741Y-90849485D01*
X134777408Y-90516152D02*
X134777408Y-91325676D01*
X134777408Y-91325676D02*
X134825027Y-91420914D01*
X134825027Y-91420914D02*
X134872646Y-91468533D01*
X134872646Y-91468533D02*
X134967884Y-91516152D01*
X134967884Y-91516152D02*
X135110741Y-91516152D01*
X135110741Y-91516152D02*
X135205979Y-91468533D01*
X134777408Y-91135200D02*
X134872646Y-91182819D01*
X134872646Y-91182819D02*
X135063122Y-91182819D01*
X135063122Y-91182819D02*
X135158360Y-91135200D01*
X135158360Y-91135200D02*
X135205979Y-91087580D01*
X135205979Y-91087580D02*
X135253598Y-90992342D01*
X135253598Y-90992342D02*
X135253598Y-90706628D01*
X135253598Y-90706628D02*
X135205979Y-90611390D01*
X135205979Y-90611390D02*
X135158360Y-90563771D01*
X135158360Y-90563771D02*
X135063122Y-90516152D01*
X135063122Y-90516152D02*
X134872646Y-90516152D01*
X134872646Y-90516152D02*
X134777408Y-90563771D01*
X156289333Y-90259819D02*
X156289333Y-90974104D01*
X156289333Y-90974104D02*
X156336952Y-91116961D01*
X156336952Y-91116961D02*
X156432190Y-91212200D01*
X156432190Y-91212200D02*
X156575047Y-91259819D01*
X156575047Y-91259819D02*
X156670285Y-91259819D01*
X155289333Y-91259819D02*
X155860761Y-91259819D01*
X155575047Y-91259819D02*
X155575047Y-90259819D01*
X155575047Y-90259819D02*
X155670285Y-90402676D01*
X155670285Y-90402676D02*
X155765523Y-90497914D01*
X155765523Y-90497914D02*
X155860761Y-90545533D01*
D11*
%TO.C,J1*%
X130750000Y-92015000D02*
X130750000Y-97215000D01*
X130750000Y-92015000D02*
X153670000Y-92015000D01*
X130750000Y-97215000D02*
X156270000Y-97215000D01*
X153670000Y-92015000D02*
X153670000Y-94615000D01*
X153670000Y-94615000D02*
X156270000Y-94615000D01*
X154940000Y-92015000D02*
X156270000Y-92015000D01*
X156270000Y-92015000D02*
X156270000Y-93345000D01*
X156270000Y-94615000D02*
X156270000Y-97215000D01*
%TD*%
M02*
