%TF.GenerationSoftware,KiCad,Pcbnew,8.0.7*%
%TF.CreationDate,2025-01-05T01:31:37-06:00*%
%TF.ProjectId,MFM-Emulator-J7-LED-Board,4d464d2d-456d-4756-9c61-746f722d4a37,v1.0*%
%TF.SameCoordinates,Original*%
%TF.FileFunction,Copper,L1,Top*%
%TF.FilePolarity,Positive*%
%FSLAX46Y46*%
G04 Gerber Fmt 4.6, Leading zero omitted, Abs format (unit mm)*
G04 Created by KiCad (PCBNEW 8.0.7) date 2025-01-05 01:31:37*
%MOMM*%
%LPD*%
G01*
G04 APERTURE LIST*
G04 Aperture macros list*
%AMRoundRect*
0 Rectangle with rounded corners*
0 $1 Rounding radius*
0 $2 $3 $4 $5 $6 $7 $8 $9 X,Y pos of 4 corners*
0 Add a 4 corners polygon primitive as box body*
4,1,4,$2,$3,$4,$5,$6,$7,$8,$9,$2,$3,0*
0 Add four circle primitives for the rounded corners*
1,1,$1+$1,$2,$3*
1,1,$1+$1,$4,$5*
1,1,$1+$1,$6,$7*
1,1,$1+$1,$8,$9*
0 Add four rect primitives between the rounded corners*
20,1,$1+$1,$2,$3,$4,$5,0*
20,1,$1+$1,$4,$5,$6,$7,0*
20,1,$1+$1,$6,$7,$8,$9,0*
20,1,$1+$1,$8,$9,$2,$3,0*%
G04 Aperture macros list end*
%TA.AperFunction,ComponentPad*%
%ADD10R,1.700000X1.700000*%
%TD*%
%TA.AperFunction,ComponentPad*%
%ADD11O,1.700000X1.700000*%
%TD*%
%TA.AperFunction,SMDPad,CuDef*%
%ADD12RoundRect,0.250000X-0.325000X-0.450000X0.325000X-0.450000X0.325000X0.450000X-0.325000X0.450000X0*%
%TD*%
%TA.AperFunction,SMDPad,CuDef*%
%ADD13RoundRect,0.250000X0.325000X0.450000X-0.325000X0.450000X-0.325000X-0.450000X0.325000X-0.450000X0*%
%TD*%
%TA.AperFunction,SMDPad,CuDef*%
%ADD14RoundRect,0.250000X0.350000X0.450000X-0.350000X0.450000X-0.350000X-0.450000X0.350000X-0.450000X0*%
%TD*%
%TA.AperFunction,SMDPad,CuDef*%
%ADD15RoundRect,0.250000X-0.350000X-0.450000X0.350000X-0.450000X0.350000X0.450000X-0.350000X0.450000X0*%
%TD*%
%TA.AperFunction,ViaPad*%
%ADD16C,0.600000*%
%TD*%
%TA.AperFunction,Conductor*%
%ADD17C,0.200000*%
%TD*%
G04 APERTURE END LIST*
D10*
%TO.P,J3,1,Pin_1*%
%TO.N,Net-(D2-A)*%
X158877000Y-95885000D03*
D11*
%TO.P,J3,2,Pin_2*%
%TO.N,Net-(D2-K)*%
X158877000Y-93345000D03*
%TD*%
D10*
%TO.P,J2,1,Pin_1*%
%TO.N,Net-(D1-A)*%
X128143000Y-96012000D03*
D11*
%TO.P,J2,2,Pin_2*%
%TO.N,Net-(D1-K)*%
X128143000Y-93472000D03*
%TD*%
D12*
%TO.P,D1,1,K*%
%TO.N,Net-(D1-K)*%
X134865000Y-99060000D03*
%TO.P,D1,2,A*%
%TO.N,Net-(D1-A)*%
X136915000Y-99060000D03*
%TD*%
D13*
%TO.P,D2,1,K*%
%TO.N,Net-(D2-K)*%
X152155000Y-99060000D03*
%TO.P,D2,2,A*%
%TO.N,Net-(D2-A)*%
X150105000Y-99060000D03*
%TD*%
D14*
%TO.P,R2,1*%
%TO.N,Net-(D2-A)*%
X147050000Y-99060000D03*
%TO.P,R2,2*%
%TO.N,+3.3V*%
X145050000Y-99060000D03*
%TD*%
D15*
%TO.P,R1,1*%
%TO.N,Net-(D1-A)*%
X139970000Y-99060000D03*
%TO.P,R1,2*%
%TO.N,+3.3V*%
X141970000Y-99060000D03*
%TD*%
D10*
%TO.P,J1,1,Pin_1*%
%TO.N,+3.3V*%
X154940000Y-93345000D03*
D11*
%TO.P,J1,2,Pin_2*%
%TO.N,GND*%
X154940000Y-95885000D03*
%TO.P,J1,3,Pin_3*%
%TO.N,unconnected-(J1-Pin_3-Pad3)*%
X152400000Y-93345000D03*
%TO.P,J1,4,Pin_4*%
%TO.N,unconnected-(J1-Pin_4-Pad4)*%
X152400000Y-95885000D03*
%TO.P,J1,5,Pin_5*%
%TO.N,unconnected-(J1-Pin_5-Pad5)*%
X149860000Y-93345000D03*
%TO.P,J1,6,Pin_6*%
%TO.N,unconnected-(J1-Pin_6-Pad6)*%
X149860000Y-95885000D03*
%TO.P,J1,7,Pin_7*%
%TO.N,unconnected-(J1-Pin_7-Pad7)*%
X147320000Y-93345000D03*
%TO.P,J1,8,Pin_8*%
%TO.N,unconnected-(J1-Pin_8-Pad8)*%
X147320000Y-95885000D03*
%TO.P,J1,9,Pin_9*%
%TO.N,unconnected-(J1-Pin_9-Pad9)*%
X144780000Y-93345000D03*
%TO.P,J1,10,Pin_10*%
%TO.N,Net-(D2-K)*%
X144780000Y-95885000D03*
%TO.P,J1,11,Pin_11*%
%TO.N,unconnected-(J1-Pin_11-Pad11)*%
X142240000Y-93345000D03*
%TO.P,J1,12,Pin_12*%
%TO.N,unconnected-(J1-Pin_12-Pad12)*%
X142240000Y-95885000D03*
%TO.P,J1,13,Pin_13*%
%TO.N,unconnected-(J1-Pin_13-Pad13)*%
X139700000Y-93345000D03*
%TO.P,J1,14,Pin_14*%
%TO.N,unconnected-(J1-Pin_14-Pad14)*%
X139700000Y-95885000D03*
%TO.P,J1,15,Pin_15*%
%TO.N,unconnected-(J1-Pin_15-Pad15)*%
X137160000Y-93345000D03*
%TO.P,J1,16,Pin_16*%
%TO.N,Net-(D1-K)*%
X137160000Y-95885000D03*
%TO.P,J1,17,Pin_17*%
%TO.N,unconnected-(J1-Pin_17-Pad17)*%
X134620000Y-93345000D03*
%TO.P,J1,18,Pin_18*%
%TO.N,GND*%
X134620000Y-95885000D03*
%TO.P,J1,19,Pin_19*%
%TO.N,unconnected-(J1-Pin_19-Pad19)*%
X132080000Y-93345000D03*
%TO.P,J1,20,Pin_20*%
%TO.N,unconnected-(J1-Pin_20-Pad20)*%
X132080000Y-95885000D03*
%TD*%
D16*
%TO.N,Net-(D1-A)*%
X136017000Y-99060000D03*
%TO.N,Net-(D2-A)*%
X151003000Y-99060000D03*
%TD*%
D17*
%TO.N,Net-(D2-K)*%
X156845000Y-97028000D02*
X156845000Y-95377000D01*
X156845000Y-95377000D02*
X158877000Y-93345000D01*
X154813000Y-99060000D02*
X156845000Y-97028000D01*
X152155000Y-99060000D02*
X154813000Y-99060000D01*
%TO.N,Net-(D1-K)*%
X128143000Y-93574346D02*
X128143000Y-93472000D01*
X130302000Y-95733346D02*
X128143000Y-93574346D01*
X132080000Y-99060000D02*
X130302000Y-97282000D01*
X130302000Y-97282000D02*
X130302000Y-95733346D01*
X134865000Y-99060000D02*
X132080000Y-99060000D01*
%TO.N,Net-(D1-A)*%
X136915000Y-99060000D02*
X136017000Y-99060000D01*
%TO.N,Net-(D2-A)*%
X150105000Y-99060000D02*
X151003000Y-99060000D01*
%TO.N,Net-(D1-A)*%
X136915000Y-99060000D02*
X139970000Y-99060000D01*
%TO.N,Net-(D1-K)*%
X134865000Y-98180000D02*
X137160000Y-95885000D01*
X134865000Y-99060000D02*
X134865000Y-98180000D01*
%TO.N,Net-(D2-K)*%
X150504000Y-97409000D02*
X146304000Y-97409000D01*
X152155000Y-99060000D02*
X150504000Y-97409000D01*
X146304000Y-97409000D02*
X144780000Y-95885000D01*
%TO.N,Net-(D2-A)*%
X147050000Y-99060000D02*
X150105000Y-99060000D01*
%TO.N,+3.3V*%
X145050000Y-99060000D02*
X141970000Y-99060000D01*
X144272000Y-94615000D02*
X153670000Y-94615000D01*
X143510000Y-95377000D02*
X144272000Y-94615000D01*
X141970000Y-99060000D02*
X143510000Y-97520000D01*
X143510000Y-97520000D02*
X143510000Y-95377000D01*
X153670000Y-94615000D02*
X154940000Y-93345000D01*
%TD*%
%TA.AperFunction,Conductor*%
%TO.N,Net-(D2-K)*%
G36*
X152699803Y-98491526D02*
G01*
X153300462Y-98956487D01*
X153304906Y-98964261D01*
X153305000Y-98965739D01*
X153305000Y-99154260D01*
X153301573Y-99162533D01*
X153300462Y-99163512D01*
X152699803Y-99628473D01*
X152691163Y-99630827D01*
X152684093Y-99627210D01*
X152161466Y-99067989D01*
X152158321Y-99059604D01*
X152161466Y-99052011D01*
X152684094Y-98492788D01*
X152692245Y-98489085D01*
X152699803Y-98491526D01*
G37*
%TD.AperFunction*%
%TD*%
%TA.AperFunction,Conductor*%
%TO.N,Net-(D1-K)*%
G36*
X134335906Y-98492789D02*
G01*
X134858533Y-99052011D01*
X134861678Y-99060396D01*
X134858533Y-99067989D01*
X134335906Y-99627210D01*
X134327754Y-99630914D01*
X134320196Y-99628473D01*
X133719538Y-99163512D01*
X133715094Y-99155738D01*
X133715000Y-99154260D01*
X133715000Y-98965739D01*
X133718427Y-98957466D01*
X133719538Y-98956487D01*
X134320196Y-98491525D01*
X134328836Y-98489172D01*
X134335906Y-98492789D01*
G37*
%TD.AperFunction*%
%TD*%
%TA.AperFunction,Conductor*%
%TO.N,Net-(D1-A)*%
G36*
X136386628Y-98493804D02*
G01*
X136388085Y-98495121D01*
X136589641Y-98710789D01*
X136908533Y-99052011D01*
X136911678Y-99060396D01*
X136908533Y-99067989D01*
X136388089Y-99624875D01*
X136379937Y-99628579D01*
X136371552Y-99625434D01*
X136370232Y-99623973D01*
X136019391Y-99163140D01*
X136017000Y-99156053D01*
X136017000Y-98963946D01*
X136019391Y-98956859D01*
X136370233Y-98496025D01*
X136377970Y-98491519D01*
X136386628Y-98493804D01*
G37*
%TD.AperFunction*%
%TD*%
%TA.AperFunction,Conductor*%
%TO.N,Net-(D2-A)*%
G36*
X150648447Y-98494565D02*
G01*
X150649767Y-98496026D01*
X151000609Y-98956859D01*
X151003000Y-98963946D01*
X151003000Y-99156053D01*
X151000609Y-99163140D01*
X150649767Y-99623973D01*
X150642029Y-99628480D01*
X150633371Y-99626195D01*
X150631913Y-99624878D01*
X150111465Y-99067988D01*
X150108321Y-99059604D01*
X150111466Y-99052011D01*
X150197456Y-98960000D01*
X150631912Y-98495122D01*
X150640062Y-98491420D01*
X150648447Y-98494565D01*
G37*
%TD.AperFunction*%
%TD*%
%TA.AperFunction,Conductor*%
%TO.N,Net-(D1-A)*%
G36*
X137459803Y-98491526D02*
G01*
X138060462Y-98956487D01*
X138064906Y-98964261D01*
X138065000Y-98965739D01*
X138065000Y-99154260D01*
X138061573Y-99162533D01*
X138060462Y-99163512D01*
X137459803Y-99628473D01*
X137451163Y-99630827D01*
X137444093Y-99627210D01*
X136921466Y-99067989D01*
X136918321Y-99059604D01*
X136921466Y-99052011D01*
X137444094Y-98492788D01*
X137452245Y-98489085D01*
X137459803Y-98491526D01*
G37*
%TD.AperFunction*%
%TD*%
%TA.AperFunction,Conductor*%
%TO.N,Net-(D1-A)*%
G36*
X139432551Y-98467939D02*
G01*
X139963840Y-99052128D01*
X139966871Y-99060554D01*
X139963840Y-99067872D01*
X139432551Y-99652060D01*
X139424449Y-99655875D01*
X139416798Y-99653490D01*
X139212531Y-99497639D01*
X138774603Y-99163511D01*
X138770104Y-99155768D01*
X138770000Y-99154209D01*
X138770000Y-98965790D01*
X138773427Y-98957517D01*
X138774603Y-98956488D01*
X139416800Y-98466508D01*
X139425454Y-98464215D01*
X139432551Y-98467939D01*
G37*
%TD.AperFunction*%
%TD*%
%TA.AperFunction,Conductor*%
%TO.N,Net-(D1-K)*%
G36*
X136386282Y-95564501D02*
G01*
X137156215Y-95882438D01*
X137162552Y-95888761D01*
X137162562Y-95888785D01*
X137480497Y-96658714D01*
X137480488Y-96667669D01*
X137474149Y-96673994D01*
X137473396Y-96674275D01*
X136035495Y-97155494D01*
X136026562Y-97154870D01*
X136023509Y-97152672D01*
X135892327Y-97021490D01*
X135888900Y-97013217D01*
X135889503Y-97009510D01*
X136370725Y-95571601D01*
X136376599Y-95564845D01*
X136385532Y-95564221D01*
X136386282Y-95564501D01*
G37*
%TD.AperFunction*%
%TD*%
%TA.AperFunction,Conductor*%
%TO.N,Net-(D1-K)*%
G36*
X135081313Y-97837700D02*
G01*
X135213241Y-97969628D01*
X135215907Y-97973751D01*
X135418258Y-98507182D01*
X135417989Y-98516133D01*
X135415515Y-98519682D01*
X134874625Y-99050565D01*
X134866320Y-99053914D01*
X134858079Y-99050411D01*
X134856545Y-99048476D01*
X134441359Y-98393099D01*
X134439827Y-98384277D01*
X134443562Y-98378012D01*
X135065363Y-97837144D01*
X135073852Y-97834301D01*
X135081313Y-97837700D01*
G37*
%TD.AperFunction*%
%TD*%
%TA.AperFunction,Conductor*%
%TO.N,Net-(D2-K)*%
G36*
X151274114Y-98033105D02*
G01*
X152074132Y-98296190D01*
X152258694Y-98356883D01*
X152265483Y-98362722D01*
X152266591Y-98369851D01*
X152156744Y-99054241D01*
X152152050Y-99061867D01*
X152149653Y-99063203D01*
X151590901Y-99293675D01*
X151581947Y-99293662D01*
X151575624Y-99287320D01*
X151575589Y-99287236D01*
X151503330Y-99108095D01*
X151502600Y-99102055D01*
X151508647Y-99060000D01*
X151488165Y-98917543D01*
X151428377Y-98786627D01*
X151334128Y-98677857D01*
X151331399Y-98676103D01*
X151326878Y-98670641D01*
X151128752Y-98179454D01*
X151128836Y-98170502D01*
X151131327Y-98166810D01*
X151262191Y-98035946D01*
X151270463Y-98032520D01*
X151274114Y-98033105D01*
G37*
%TD.AperFunction*%
%TD*%
%TA.AperFunction,Conductor*%
%TO.N,Net-(D2-K)*%
G36*
X145562669Y-95564511D02*
G01*
X145568994Y-95570850D01*
X145569275Y-95571603D01*
X145936337Y-96668400D01*
X146050494Y-97009504D01*
X146049870Y-97018437D01*
X146047672Y-97021490D01*
X145916490Y-97152672D01*
X145908217Y-97156099D01*
X145904504Y-97155494D01*
X145494972Y-97018437D01*
X145240235Y-96933184D01*
X144466603Y-96674275D01*
X144459845Y-96668400D01*
X144459221Y-96659467D01*
X144459497Y-96658726D01*
X144777438Y-95888783D01*
X144783759Y-95882448D01*
X145553715Y-95564502D01*
X145562669Y-95564511D01*
G37*
%TD.AperFunction*%
%TD*%
%TA.AperFunction,Conductor*%
%TO.N,Net-(D2-A)*%
G36*
X147603199Y-98466508D02*
G01*
X148245397Y-98956488D01*
X148249896Y-98964231D01*
X148250000Y-98965790D01*
X148250000Y-99154209D01*
X148246573Y-99162482D01*
X148245397Y-99163511D01*
X147603201Y-99653490D01*
X147594545Y-99655784D01*
X147587448Y-99652060D01*
X147056159Y-99067872D01*
X147053128Y-99059446D01*
X147056159Y-99052128D01*
X147143139Y-98956488D01*
X147587449Y-98467938D01*
X147595550Y-98464124D01*
X147603199Y-98466508D01*
G37*
%TD.AperFunction*%
%TD*%
%TA.AperFunction,Conductor*%
%TO.N,Net-(D2-A)*%
G36*
X149575906Y-98492789D02*
G01*
X150098533Y-99052011D01*
X150101678Y-99060396D01*
X150098533Y-99067989D01*
X149575906Y-99627210D01*
X149567754Y-99630914D01*
X149560196Y-99628473D01*
X148959538Y-99163512D01*
X148955094Y-99155738D01*
X148955000Y-99154260D01*
X148955000Y-98965739D01*
X148958427Y-98957466D01*
X148959538Y-98956487D01*
X149560196Y-98491525D01*
X149568836Y-98489172D01*
X149575906Y-98492789D01*
G37*
%TD.AperFunction*%
%TD*%
%TA.AperFunction,Conductor*%
%TO.N,+3.3V*%
G36*
X144512551Y-98467939D02*
G01*
X145043840Y-99052128D01*
X145046871Y-99060554D01*
X145043840Y-99067872D01*
X144512551Y-99652060D01*
X144504449Y-99655875D01*
X144496798Y-99653490D01*
X144292531Y-99497639D01*
X143854603Y-99163511D01*
X143850104Y-99155768D01*
X143850000Y-99154209D01*
X143850000Y-98965790D01*
X143853427Y-98957517D01*
X143854603Y-98956488D01*
X144496800Y-98466508D01*
X144505454Y-98464215D01*
X144512551Y-98467939D01*
G37*
%TD.AperFunction*%
%TD*%
%TA.AperFunction,Conductor*%
%TO.N,+3.3V*%
G36*
X142523199Y-98466508D02*
G01*
X143165397Y-98956488D01*
X143169896Y-98964231D01*
X143170000Y-98965790D01*
X143170000Y-99154209D01*
X143166573Y-99162482D01*
X143165397Y-99163511D01*
X142523201Y-99653490D01*
X142514545Y-99655784D01*
X142507448Y-99652060D01*
X141976159Y-99067872D01*
X141973128Y-99059446D01*
X141976159Y-99052128D01*
X142063139Y-98956488D01*
X142507449Y-98467938D01*
X142515550Y-98464124D01*
X142523199Y-98466508D01*
G37*
%TD.AperFunction*%
%TD*%
%TA.AperFunction,Conductor*%
%TO.N,+3.3V*%
G36*
X142892434Y-98001118D02*
G01*
X142895523Y-98003334D01*
X143026374Y-98134185D01*
X143029801Y-98142458D01*
X143028983Y-98146757D01*
X142574364Y-99297481D01*
X142568137Y-99303916D01*
X142559183Y-99304064D01*
X142559020Y-99303998D01*
X141975003Y-99063062D01*
X141968662Y-99056739D01*
X141968018Y-99054666D01*
X141823616Y-98370163D01*
X141825261Y-98361363D01*
X141831310Y-98356669D01*
X142883500Y-98000525D01*
X142892434Y-98001118D01*
G37*
%TD.AperFunction*%
%TD*%
%TA.AperFunction,Conductor*%
%TO.N,+3.3V*%
G36*
X154100602Y-92952167D02*
G01*
X154100903Y-92952302D01*
X154936602Y-93342944D01*
X154942645Y-93349552D01*
X154942650Y-93349565D01*
X155244004Y-94183190D01*
X155243594Y-94192136D01*
X155236979Y-94198171D01*
X155236192Y-94198424D01*
X153428860Y-94710778D01*
X153419966Y-94709738D01*
X153414413Y-94702713D01*
X153413969Y-94699522D01*
X153413969Y-94517415D01*
X153414925Y-94512782D01*
X153550585Y-94198171D01*
X154085226Y-92958276D01*
X154091648Y-92952038D01*
X154100602Y-92952167D01*
G37*
%TD.AperFunction*%
%TD*%
M02*
